<svg width="20" height="20" viewBox="0 0 20 20" fill="none" xmlns="http://www.w3.org/2000/svg">
<path d="M4.32494 5.31668C4.16661 5.31668 3.99994 5.25001 3.88328 5.13335C3.64161 4.89168 3.64161 4.49168 3.88328 4.25001L6.90828 1.22501C7.14994 0.983346 7.54994 0.983346 7.79161 1.22501C8.03328 1.46668 8.03328 1.86668 7.79161 2.10835L4.76661 5.13335C4.64161 5.25001 4.48328 5.31668 4.32494 5.31668Z" fill="white"/>
<path d="M15.675 5.31668C15.5167 5.31668 15.3584 5.25835 15.2334 5.13335L12.2083 2.10835C11.9667 1.86668 11.9667 1.46668 12.2083 1.22501C12.45 0.983346 12.85 0.983346 13.0917 1.22501L16.1167 4.25001C16.3584 4.49168 16.3584 4.89168 16.1167 5.13335C16 5.25001 15.8333 5.31668 15.675 5.31668Z" fill="white"/>
<path d="M16.8416 8.83333C16.7833 8.83333 16.725 8.83333 16.6666 8.83333H16.475H3.33329C2.74996 8.84167 2.08329 8.84167 1.59996 8.35833C1.21663 7.98333 1.04163 7.4 1.04163 6.54167C1.04163 4.25 2.71663 4.25 3.51663 4.25H16.4833C17.2833 4.25 18.9583 4.25 18.9583 6.54167C18.9583 7.40833 18.7833 7.98333 18.4 8.35833C17.9666 8.79167 17.3833 8.83333 16.8416 8.83333ZM3.51663 7.58333H16.675C17.05 7.59167 17.4 7.59167 17.5166 7.475C17.575 7.41667 17.7 7.21667 17.7 6.54167C17.7 5.6 17.4666 5.5 16.475 5.5H3.51663C2.52496 5.5 2.29163 5.6 2.29163 6.54167C2.29163 7.21667 2.42496 7.41667 2.47496 7.475C2.59163 7.58333 2.94996 7.58333 3.31663 7.58333H3.51663Z" fill="white"/>
<path d="M8.1333 15.25C7.79163 15.25 7.5083 14.9667 7.5083 14.625V11.6667C7.5083 11.325 7.79163 11.0417 8.1333 11.0417C8.47497 11.0417 8.7583 11.325 8.7583 11.6667V14.625C8.7583 14.975 8.47497 15.25 8.1333 15.25Z" fill="white"/>
<path d="M11.9667 15.25C11.625 15.25 11.3417 14.9667 11.3417 14.625V11.6667C11.3417 11.325 11.625 11.0417 11.9667 11.0417C12.3083 11.0417 12.5917 11.325 12.5917 11.6667V14.625C12.5917 14.975 12.3083 15.25 11.9667 15.25Z" fill="white"/>
<path d="M12.4083 18.9583H7.38329C4.39996 18.9583 3.73329 17.1833 3.47496 15.6417L2.29996 8.43334C2.24162 8.09168 2.47496 7.77501 2.81662 7.71668C3.15829 7.65834 3.47496 7.89168 3.53329 8.23334L4.70829 15.4333C4.94996 16.9083 5.44996 17.7083 7.38329 17.7083H12.4083C14.55 17.7083 14.7916 16.9583 15.0666 15.5083L16.4666 8.21668C16.5333 7.87501 16.8583 7.65001 17.2 7.72501C17.5416 7.79168 17.7583 8.11668 17.6916 8.45834L16.2916 15.75C15.9666 17.4417 15.425 18.9583 12.4083 18.9583Z" fill="white"/>
</svg>
