<svg width="23" height="22" viewBox="0 0 23 22" fill="none" xmlns="http://www.w3.org/2000/svg">
<rect width="23" height="22" rx="4" fill="url(#paint0_linear_412_272)"/>
<path d="M12.0063 6C9.25282 6 7 8.25282 7 11.0063C7 13.7597 9.25282 16.0125 12.0063 16.0125C13.383 16.0125 14.6596 15.4743 15.5607 14.5607L14.6596 13.6596C13.9837 14.3354 13.0451 14.761 11.9937 14.761C9.91615 14.761 8.23905 13.0839 8.23905 11.0063C8.23905 8.92866 9.91615 7.25156 11.9937 7.25156C13.0325 7.25156 13.9337 7.70213 14.6095 8.39049L13.2453 9.75469H17V6L15.5106 7.48936C14.6095 6.58824 13.3705 6 11.9937 6H12.0063Z" fill="white"/>
<defs>
<linearGradient id="paint0_linear_412_272" x1="11.8286" y1="22" x2="11.8286" y2="1.62403e-07" gradientUnits="userSpaceOnUse">
<stop stop-color="#3941FF"/>
<stop offset="1" stop-color="#454CFF"/>
</linearGradient>
</defs>
</svg>
