<svg width="23" height="22" viewBox="0 0 23 22" fill="none" xmlns="http://www.w3.org/2000/svg">
<rect width="23" height="22" rx="4" fill="url(#paint0_linear_84_934)"/>
<path d="M16.375 7.64551C16.3642 7.64551 16.3479 7.64551 16.3317 7.64551C13.4662 7.35842 10.6062 7.25009 7.77332 7.53717L6.66832 7.64551C6.44082 7.66717 6.2404 7.50467 6.21873 7.27717C6.19707 7.04967 6.35957 6.85467 6.58165 6.83301L7.68665 6.72467C10.5683 6.43217 13.4879 6.54592 16.4129 6.83301C16.635 6.85467 16.7975 7.05509 16.7758 7.27717C16.7596 7.48842 16.5808 7.64551 16.375 7.64551Z" fill="white"/>
<path d="M9.60416 7.0985C9.5825 7.0985 9.56083 7.0985 9.53374 7.09308C9.31708 7.05516 9.16541 6.84391 9.20333 6.62725L9.3225 5.91766C9.40916 5.39766 9.52833 4.67725 10.7904 4.67725H12.2096C13.4771 4.67725 13.5962 5.42475 13.6775 5.92308L13.7967 6.62725C13.8346 6.84933 13.6829 7.06058 13.4662 7.09308C13.2442 7.131 13.0329 6.97933 13.0004 6.76266L12.8812 6.0585C12.8054 5.58725 12.7892 5.49516 12.215 5.49516H10.7958C10.2217 5.49516 10.2108 5.571 10.1296 6.05308L10.005 6.75725C9.97249 6.95766 9.79916 7.0985 9.60416 7.0985Z" fill="white"/>
<path d="M13.2388 16.3228H9.7613C7.87088 16.3228 7.79505 15.2774 7.73546 14.4324L7.38338 8.97777C7.36713 8.75569 7.54046 8.56069 7.76255 8.54444C7.99005 8.53361 8.17963 8.70152 8.19588 8.92361L8.54796 14.3782C8.60755 15.2015 8.62921 15.5103 9.7613 15.5103H13.2388C14.3763 15.5103 14.398 15.2015 14.4521 14.3782L14.8042 8.92361C14.8205 8.70152 15.0155 8.53361 15.2375 8.54444C15.4596 8.56069 15.633 8.75027 15.6167 8.97777L15.2646 14.4324C15.205 15.2774 15.1292 16.3228 13.2388 16.3228Z" fill="white"/>
<path d="M12.3992 13.3438H10.5955C10.3734 13.3438 10.1892 13.1596 10.1892 12.9375C10.1892 12.7154 10.3734 12.5312 10.5955 12.5312H12.3992C12.6213 12.5312 12.8055 12.7154 12.8055 12.9375C12.8055 13.1596 12.6213 13.3438 12.3992 13.3438Z" fill="white"/>
<path d="M12.8541 11.1772H10.1458C9.92367 11.1772 9.7395 10.9931 9.7395 10.771C9.7395 10.5489 9.92367 10.3647 10.1458 10.3647H12.8541C13.0762 10.3647 13.2603 10.5489 13.2603 10.771C13.2603 10.9931 13.0762 11.1772 12.8541 11.1772Z" fill="white"/>
<defs>
<linearGradient id="paint0_linear_84_934" x1="11.8286" y1="22" x2="11.8286" y2="1.62403e-07" gradientUnits="userSpaceOnUse">
<stop stop-color="#FF4539"/>
<stop offset="1" stop-color="#FF6645"/>
</linearGradient>
</defs>
</svg>
