<svg width="23" height="22" viewBox="0 0 23 22" fill="none" xmlns="http://www.w3.org/2000/svg">
<g clip-path="url(#clip0_411_2)">
<path d="M19 0H4C1.79086 0 0 1.79086 0 4V18C0 20.2091 1.79086 22 4 22H19C21.2091 22 23 20.2091 23 18V4C23 1.79086 21.2091 0 19 0Z" fill="url(#paint0_linear_411_2)"/>
<path d="M16.3284 10.8542H14.3334C14.0942 10.8542 13.8959 10.6558 13.8959 10.4167V6.33917C13.8959 5.9075 14.065 5.50501 14.3684 5.20167C14.6717 4.89834 15.0742 4.72917 15.5059 4.72917H15.5117C16.2409 4.73501 16.9292 5.02084 17.4542 5.54C17.9792 6.07084 18.265 6.77084 18.265 7.5V8.91167C18.2709 10.0725 17.4892 10.8542 16.3284 10.8542ZM14.7709 9.97917H16.3284C17.005 9.97917 17.3959 9.58834 17.3959 8.91167V7.5C17.3959 6.99834 17.1975 6.52001 16.8417 6.15834C16.4859 5.80834 16.0075 5.61001 15.5117 5.60417C15.5117 5.60417 15.5117 5.60417 15.5059 5.60417C15.3134 5.60417 15.1267 5.68 14.9867 5.82C14.8467 5.96 14.7709 6.14084 14.7709 6.33917V9.97917V9.97917Z" fill="white"/>
<path d="M10.25 17.6092C9.97579 17.6092 9.71913 17.5042 9.52663 17.3058L8.55829 16.3317C8.50579 16.2792 8.42413 16.2733 8.36579 16.32L7.36246 17.0667C7.05329 17.3 6.64496 17.3408 6.29496 17.1658C5.94496 16.9908 5.72913 16.6408 5.72913 16.25V7.5C5.72913 5.73834 6.73829 4.72917 8.49996 4.72917H15.5C15.7391 4.72917 15.9375 4.92751 15.9375 5.16667C15.9375 5.40584 15.7391 5.60417 15.5 5.60417C15.0975 5.60417 14.7708 5.93084 14.7708 6.33334V16.25C14.7708 16.6408 14.555 16.9908 14.205 17.1658C13.855 17.3408 13.4466 17.3058 13.1375 17.0725L12.14 16.3258C12.0816 16.2792 12 16.2908 11.9533 16.3375L10.9733 17.3175C10.7808 17.5042 10.5241 17.6092 10.25 17.6092ZM8.44746 15.4158C8.71579 15.4158 8.97829 15.515 9.17663 15.7192L10.145 16.6933C10.18 16.7283 10.2266 16.7342 10.25 16.7342C10.2733 16.7342 10.32 16.7283 10.355 16.6933L11.335 15.7133C11.6966 15.3517 12.2683 15.3167 12.6708 15.6258L13.6625 16.3667C13.7266 16.4133 13.785 16.3958 13.8141 16.3783C13.8433 16.3608 13.8958 16.3258 13.8958 16.25V6.33334C13.8958 6.07084 13.96 5.82001 14.0708 5.60417H8.49996C7.20496 5.60417 6.60413 6.20501 6.60413 7.5V16.25C6.60413 16.3317 6.65663 16.3667 6.68579 16.3842C6.72079 16.4017 6.77913 16.4133 6.83746 16.3667L7.83496 15.62C8.01579 15.4858 8.23163 15.4158 8.44746 15.4158Z" fill="white"/>
<path d="M12 12.0267H10.25C10.0108 12.0267 9.8125 11.8283 9.8125 11.5892C9.8125 11.35 10.0108 11.1517 10.25 11.1517H12C12.2392 11.1517 12.4375 11.35 12.4375 11.5892C12.4375 11.8283 12.2392 12.0267 12 12.0267Z" fill="white"/>
<path d="M12 9.69334H10.25C10.0108 9.69334 9.8125 9.49501 9.8125 9.25584C9.8125 9.01668 10.0108 8.81834 10.25 8.81834H12C12.2392 8.81834 12.4375 9.01668 12.4375 9.25584C12.4375 9.49501 12.2392 9.69334 12 9.69334Z" fill="white"/>
<path d="M8.48263 9.83917C8.16179 9.83917 7.89929 9.57667 7.89929 9.25583C7.89929 8.935 8.16179 8.6725 8.48263 8.6725C8.80346 8.6725 9.06596 8.935 9.06596 9.25583C9.06596 9.57667 8.80346 9.83917 8.48263 9.83917Z" fill="white"/>
<path d="M8.48263 12.1725C8.16179 12.1725 7.89929 11.91 7.89929 11.5892C7.89929 11.2683 8.16179 11.0058 8.48263 11.0058C8.80346 11.0058 9.06596 11.2683 9.06596 11.5892C9.06596 11.91 8.80346 12.1725 8.48263 12.1725Z" fill="white"/>
</g>
<defs>
<linearGradient id="paint0_linear_411_2" x1="11.8286" y1="22" x2="11.8286" y2="0" gradientUnits="userSpaceOnUse">
<stop stop-color="#73B81B"/>
<stop offset="1" stop-color="#1EC51B"/>
</linearGradient>
<clipPath id="clip0_411_2">
<rect width="23" height="22" fill="white"/>
</clipPath>
</defs>
</svg>
