<svg width="35" height="35" viewBox="0 0 35 35" fill="none" xmlns="http://www.w3.org/2000/svg">
<path d="M0 5C0 2.23858 2.23858 0 5 0H30C32.7614 0 35 2.23858 35 5V30C35 32.7614 32.7614 35 30 35H5C2.23858 35 0 32.7614 0 30V5Z" fill="url(#paint0_linear_66_129)"/>
<g clip-path="url(#clip0_66_129)">
<path d="M23.4812 11.0993C23.7551 10.8228 24.1273 10.666 24.5165 10.6631C24.9057 10.6603 25.2801 10.8116 25.5581 11.084C25.836 11.3563 25.9948 11.7277 25.9998 12.1168C26.0048 12.506 25.8555 12.8813 25.5847 13.1607L17.7468 22.9589C17.6122 23.1039 17.4497 23.2203 17.2691 23.301C17.0885 23.3818 16.8935 23.4254 16.6956 23.4291C16.4978 23.4328 16.3013 23.3967 16.1177 23.3228C15.9342 23.2489 15.7675 23.1387 15.6274 22.9989L10.4309 17.8044C10.1547 17.5281 9.99966 17.1534 9.99976 16.7628C9.99985 16.3722 10.1551 15.9976 10.4314 15.7215C10.7077 15.4453 11.0823 15.2902 11.473 15.2903C11.8636 15.2904 12.2382 15.4457 12.5143 15.722L16.6242 19.8328L23.4423 11.1452C23.4546 11.1294 23.468 11.1144 23.4822 11.1003L23.4812 11.0993Z" fill="white"/>
</g>
<defs>
<linearGradient id="paint0_linear_66_129" x1="18" y1="35" x2="18" y2="2.58368e-07" gradientUnits="userSpaceOnUse">
<stop stop-color="#54BB04"/>
<stop offset="1" stop-color="#05FF00"/>
</linearGradient>
<clipPath id="clip0_66_129">
<path d="M10 15C10 12.2386 12.2386 10 15 10H21C23.7614 10 26 12.2386 26 15V21C26 23.7614 23.7614 26 21 26H15C12.2386 26 10 23.7614 10 21V15Z" fill="white"/>
</clipPath>
</defs>
</svg>
