<svg width="28" height="28" viewBox="0 0 28 28" fill="none" xmlns="http://www.w3.org/2000/svg">
<path d="M27.2927 3.53696C27.6832 3.14643 27.6832 2.51327 27.2927 2.12274L25.8769 0.706955C25.4864 0.316431 24.8532 0.316431 24.4627 0.706956L14.7069 10.4627C14.3164 10.8532 13.6832 10.8532 13.2927 10.4627L3.53696 0.706956C3.14643 0.316432 2.51327 0.316432 2.12274 0.706956L0.706955 2.12274C0.316431 2.51327 0.316431 3.14643 0.706956 3.53696L10.4627 13.2927C10.8532 13.6832 10.8532 14.3164 10.4627 14.7069L0.706956 24.4627C0.316432 24.8532 0.316431 25.4864 0.706955 25.8769L2.12274 27.2927C2.51327 27.6832 3.14643 27.6832 3.53696 27.2927L13.2927 17.5369C13.6832 17.1464 14.3164 17.1464 14.7069 17.5369L24.4627 27.2927C24.8532 27.6832 25.4864 27.6832 25.8769 27.2927L27.2927 25.8769C27.6832 25.4864 27.6832 24.8532 27.2927 24.4627L17.5369 14.7069C17.1464 14.3164 17.1464 13.6832 17.5369 13.2927L27.2927 3.53696Z" fill="#EEEEEE"/>
</svg>
