<svg width="28" height="28" viewBox="0 0 28 28" fill="none" xmlns="http://www.w3.org/2000/svg">
<path d="M27.2929 3.53711C27.6834 3.14658 27.6834 2.51342 27.2929 2.12289L25.8771 0.707106C25.4866 0.316582 24.8534 0.316582 24.4629 0.707107L14.7071 10.4629C14.3166 10.8534 13.6834 10.8534 13.2929 10.4629L3.53711 0.707107C3.14658 0.316583 2.51342 0.316583 2.12289 0.707107L0.707106 2.12289C0.316582 2.51342 0.316582 3.14658 0.707107 3.53711L10.4629 13.2929C10.8534 13.6834 10.8534 14.3166 10.4629 14.7071L0.707107 24.4629C0.316583 24.8534 0.316582 25.4866 0.707106 25.8771L2.12289 27.2929C2.51342 27.6834 3.14658 27.6834 3.53711 27.2929L13.2929 17.5371C13.6834 17.1466 14.3166 17.1466 14.7071 17.5371L24.4629 27.2929C24.8534 27.6834 25.4866 27.6834 25.8771 27.2929L27.2929 25.8771C27.6834 25.4866 27.6834 24.8534 27.2929 24.4629L17.5371 14.7071C17.1466 14.3166 17.1466 13.6834 17.5371 13.2929L27.2929 3.53711Z" fill="#F4F4F4"/>
</svg>
