<svg width="19" height="20" viewBox="0 0 19 20" fill="none" xmlns="http://www.w3.org/2000/svg">
<path d="M10.6082 14.2908H8.62113C7.3228 14.2908 6.26988 13.1983 6.26988 11.8525C6.26988 11.5279 6.53905 11.2588 6.86363 11.2588C7.18821 11.2588 7.45738 11.5279 7.45738 11.8525C7.45738 12.5413 7.97988 13.1033 8.62113 13.1033H10.6082C11.1228 13.1033 11.5503 12.6442 11.5503 12.09C11.5503 11.4013 11.3049 11.2667 10.9011 11.1242L7.71071 10C7.09321 9.78625 6.26196 9.32708 6.26196 7.91C6.26196 6.69083 7.21988 5.70917 8.39155 5.70917H10.3786C11.677 5.70917 12.7299 6.80167 12.7299 8.1475C12.7299 8.47208 12.4607 8.74125 12.1361 8.74125C11.8115 8.74125 11.5424 8.47208 11.5424 8.1475C11.5424 7.45875 11.0199 6.89667 10.3786 6.89667H8.39155C7.87696 6.89667 7.44946 7.35583 7.44946 7.91C7.44946 8.59875 7.69488 8.73333 8.09863 8.87583L11.289 10C11.9065 10.2138 12.7378 10.6729 12.7378 12.09C12.7299 13.3013 11.7799 14.2908 10.6082 14.2908Z" fill="white"/>
<path d="M9.5 15.3438C9.17542 15.3438 8.90625 15.0746 8.90625 14.75V5.25C8.90625 4.92542 9.17542 4.65625 9.5 4.65625C9.82458 4.65625 10.0938 4.92542 10.0938 5.25V14.75C10.0938 15.0746 9.82458 15.3438 9.5 15.3438Z" fill="white"/>
<path d="M9.49992 18.5104C4.80534 18.5104 0.989502 14.6946 0.989502 10C0.989502 5.30542 4.80534 1.48958 9.49992 1.48958C14.1945 1.48958 18.0103 5.30542 18.0103 10C18.0103 14.6946 14.1945 18.5104 9.49992 18.5104ZM9.49992 2.67708C5.46242 2.67708 2.177 5.9625 2.177 10C2.177 14.0375 5.46242 17.3229 9.49992 17.3229C13.5374 17.3229 16.8228 14.0375 16.8228 10C16.8228 5.9625 13.5374 2.67708 9.49992 2.67708Z" fill="white"/>
</svg>
