<svg width="20" height="20" viewBox="0 0 20 20" fill="none" xmlns="http://www.w3.org/2000/svg">
<path d="M9.99996 18.0417C9.74163 18.0417 9.49163 18.0083 9.28329 17.9333C6.09996 16.8417 1.04163 12.9667 1.04163 7.24168C1.04163 4.32501 3.39996 1.95834 6.29996 1.95834C7.70829 1.95834 9.02496 2.50834 9.99996 3.49168C10.975 2.50834 12.2916 1.95834 13.7 1.95834C16.6 1.95834 18.9583 4.33334 18.9583 7.24168C18.9583 12.975 13.9 16.8417 10.7166 17.9333C10.5083 18.0083 10.2583 18.0417 9.99996 18.0417ZM6.29996 3.20834C4.09163 3.20834 2.29163 5.01668 2.29163 7.24168C2.29163 12.9333 7.76663 16.1 9.69163 16.7583C9.84163 16.8083 10.1666 16.8083 10.3166 16.7583C12.2333 16.1 17.7166 12.9417 17.7166 7.24168C17.7166 5.01668 15.9166 3.20834 13.7083 3.20834C12.4416 3.20834 11.2666 3.80001 10.5083 4.82501C10.275 5.14168 9.74163 5.14168 9.50829 4.82501C8.73329 3.79168 7.56663 3.20834 6.29996 3.20834Z" fill="white"/>
</svg>
