<svg width="72" height="36" viewBox="0 0 72 36" fill="none" xmlns="http://www.w3.org/2000/svg">
<path d="M0 5C0 2.23858 2.23858 0 5 0H67C69.7614 0 72 2.23858 72 5V28H5C2.23857 28 0 25.7614 0 23V5Z" fill="#F32D2D"/>
<path d="M62 36L72 28H62V36Z" fill="#B42020"/>
<path d="M19.596 19V9.2H20.45L27.212 17.712H26.764V9.2H27.786V19H26.932L20.184 10.488H20.632V19H19.596ZM31.9087 13.582H37.0887V14.464H31.9087V13.582ZM32.0207 18.104H37.9147V19H30.9847V9.2H37.7047V10.096H32.0207V18.104ZM42.4392 19L39.1352 9.2H40.1992L43.2932 18.426H42.7612L45.9532 9.2H46.9052L50.0552 18.426H49.5512L52.6732 9.2H53.6672L50.3632 19H49.2712L46.2612 10.25H46.5412L43.5172 19H42.4392Z" fill="white"/>
</svg>
