<svg width="20" height="20" viewBox="0 0 20 20" fill="none" xmlns="http://www.w3.org/2000/svg">
<path d="M15.8333 9.16699H4.16667C3.24619 9.16699 2.5 9.91318 2.5 10.8336V16.6669C2.5 17.5874 3.24619 18.3336 4.16667 18.3336H15.8333C16.7538 18.3336 17.5 17.5874 17.5 16.6669V10.8336C17.5 9.91318 16.7538 9.16699 15.8333 9.16699Z" stroke="#F60404" stroke-opacity="0.933333" stroke-linecap="round" stroke-linejoin="round"/>
<path d="M5.83301 9.1665V5.83316C5.83301 4.72809 6.27199 3.66829 7.0534 2.88688C7.8348 2.10548 8.89461 1.6665 9.99967 1.6665C11.1047 1.6665 12.1646 2.10548 12.946 2.88688C13.7274 3.66829 14.1663 4.72809 14.1663 5.83316V9.1665" stroke="#F60404" stroke-opacity="0.933333" stroke-linecap="round" stroke-linejoin="round"/>
</svg>
