<svg width="24" height="24" viewBox="0 0 24 24" fill="none" xmlns="http://www.w3.org/2000/svg">
<path d="M12.0004 9.00462C14.2095 9.00462 16.0004 10.7955 16.0004 13.0046C16.0004 15.2138 14.2095 17.0046 12.0004 17.0046C9.79121 17.0046 8.00036 15.2138 8.00036 13.0046C8.00036 10.7955 9.79121 9.00462 12.0004 9.00462ZM12.0004 5.5C16.6139 5.5 20.5965 8.65001 21.7015 13.0644C21.8021 13.4662 21.5579 13.8735 21.1561 13.9741C20.7542 14.0746 20.347 13.8305 20.2464 13.4286C19.3075 9.67796 15.9217 7 12.0004 7C8.0773 7 4.69046 9.68026 3.75322 13.4332C3.65286 13.835 3.24572 14.0794 2.84385 13.9791C2.44198 13.8787 2.19756 13.4716 2.29792 13.0697C3.40101 8.65272 7.38485 5.5 12.0004 5.5Z" fill="#ABB1BB"/>
</svg>
