<svg width="27" height="25" viewBox="0 0 27 25" fill="none" xmlns="http://www.w3.org/2000/svg">
<path d="M20.6598 24.6447C20.3423 24.6447 20.0264 24.5508 19.7545 24.3636L13.361 19.9434L6.96744 24.3636C6.70255 24.5474 6.38421 24.6457 6.05789 24.6446C5.73157 24.6435 5.41395 24.5431 5.15038 24.3576C4.88657 24.1732 4.68979 23.9132 4.58806 23.6148C4.48632 23.3163 4.48481 22.9946 4.58373 22.6952L6.96823 15.2761L0.632094 10.9718C0.369501 10.7849 0.174485 10.5232 0.074629 10.2237C-0.0252266 9.92415 -0.0248667 9.60193 0.075658 9.3026C0.176976 9.00399 0.373073 8.74363 0.636235 8.55832C0.899397 8.373 1.21631 8.27211 1.5422 8.26989L9.38967 8.25852L11.8881 1.0235C11.9912 0.725446 12.189 0.466222 12.4534 0.282533C12.7178 0.0988435 13.0354 0 13.3613 0C13.6872 0 14.0049 0.0988435 14.2693 0.282533C14.5337 0.466222 14.7315 0.725446 14.8346 1.0235L17.2906 8.25852L25.1781 8.26989C25.5044 8.27166 25.8218 8.37251 26.0852 8.5581C26.3486 8.74369 26.5447 9.00459 26.6456 9.30373C26.7464 9.60287 26.7469 9.92505 26.647 10.2245C26.5471 10.5239 26.3519 10.7854 26.089 10.9718L19.7529 15.2761L22.1374 22.6952C22.2365 22.9945 22.2352 23.3162 22.1336 23.6147C22.032 23.9132 21.8353 24.1731 21.5715 24.3576C21.3071 24.5445 20.9877 24.6451 20.6598 24.6447Z" fill="#FFAC33"/>
</svg>
