<svg width="18" height="18" viewBox="0 0 18 18" fill="none" xmlns="http://www.w3.org/2000/svg">
<path d="M9.0999 10.275C9.08324 10.275 9.05824 10.275 9.04157 10.275C9.01657 10.275 8.98324 10.275 8.95824 10.275C7.06657 10.2167 5.6499 8.74168 5.6499 6.92501C5.6499 5.07501 7.15824 3.56668 9.00824 3.56668C10.8582 3.56668 12.3666 5.07501 12.3666 6.92501C12.3582 8.75001 10.9332 10.2167 9.1249 10.275C9.10824 10.275 9.10824 10.275 9.0999 10.275ZM8.9999 4.80835C7.83324 4.80835 6.89157 5.75835 6.89157 6.91668C6.89157 8.05835 7.78324 8.98335 8.91657 9.02501C8.94157 9.01668 9.0249 9.01668 9.10824 9.02501C10.2249 8.96668 11.0999 8.05001 11.1082 6.91668C11.1082 5.75835 10.1666 4.80835 8.9999 4.80835Z" fill="white" fill-opacity="0.93"/>
<path d="M9.00003 17.9583C6.75836 17.9583 4.61669 17.125 2.95836 15.6083C2.80836 15.475 2.74169 15.275 2.75836 15.0833C2.86669 14.0917 3.48336 13.1667 4.50836 12.4833C6.99169 10.8333 11.0167 10.8333 13.4917 12.4833C14.5167 13.175 15.1334 14.0917 15.2417 15.0833C15.2667 15.2833 15.1917 15.475 15.0417 15.6083C13.3834 17.125 11.2417 17.9583 9.00003 17.9583ZM4.06669 14.9167C5.45003 16.075 7.19169 16.7083 9.00003 16.7083C10.8084 16.7083 12.55 16.075 13.9334 14.9167C13.7834 14.4083 13.3834 13.9167 12.7917 13.5167C10.7417 12.15 7.26669 12.15 5.20003 13.5167C4.60836 13.9167 4.21669 14.4083 4.06669 14.9167Z" fill="white" fill-opacity="0.93"/>
<path d="M9.00008 17.9583C4.05841 17.9583 0.041748 13.9417 0.041748 8.99999C0.041748 4.05832 4.05841 0.0416565 9.00008 0.0416565C13.9417 0.0416565 17.9584 4.05832 17.9584 8.99999C17.9584 13.9417 13.9417 17.9583 9.00008 17.9583ZM9.00008 1.29166C4.75008 1.29166 1.29175 4.74999 1.29175 8.99999C1.29175 13.25 4.75008 16.7083 9.00008 16.7083C13.2501 16.7083 16.7084 13.25 16.7084 8.99999C16.7084 4.74999 13.2501 1.29166 9.00008 1.29166Z" fill="white" fill-opacity="0.93"/>
</svg>
